<svg id="Capa_1" data-name="Capa 1" xmlns="http://www.w3.org/2000/svg" viewBox="0 0 69.87 132.67"><defs><style>.cls-1{fill:#fffffe;}.cls-1,.cls-4{fill-rule:evenodd;}.cls-2{fill:none;stroke:#1a1919;stroke-width:2px;}.cls-3,.cls-4,.cls-5{fill:#ea6227;}.cls-5{font-size:21px;font-family:SegoeUI-Bold, Segoe UI;font-weight:700;letter-spacing:-0.01em;}</style></defs><title>icon-up</title><path class="cls-1" d="M56.1,119.94l-22.69-8.26,14-15L46.23,76.45l22.58,8.17-.15,2.29-12.56,33"/><path class="cls-2" d="M56.1,119.94l-22.69-8.26,14-15L46.23,76.45l22.58,8.17-.15,2.29Z"/><path class="cls-1" d="M13.82,87.72,36.51,96l-13.94,15,1.12,20.27L1.13,123l.59-4.66,12.1-30.61"/><path class="cls-2" d="M13.82,87.72,36.51,96l-13.94,15,1.12,20.27L1.13,123l.59-4.66Z"/><path class="cls-1" d="M1,122.54H68.87V85.05H1Z"/><rect class="cls-3" x="18.34" y="70.66" width="32.14" height="14.38"/><rect class="cls-3" x="18.34" y="44.95" width="32.14" height="21.06"/><rect class="cls-3" x="18.34" y="18.9" width="32.14" height="21.06"/><polygon class="cls-4" points="34.94 0.03 1 29.43 68.87 29.43 34.94 0.03"/><path class="cls-2" d="M1,122.54H68.87V85.05H1Z"/><text class="cls-5" transform="translate(4.93 113.56) scale(1 1.35)">SUBIR</text></svg>